<svg xmlns="http://www.w3.org/2000/svg">
    <symbol id="logo-php" viewBox="0 0 256 134" preserveAspectRatio="xMinYMin meet">
        <g fill-rule="evenodd">
            <ellipse fill="#8993BE" cx="128" cy="66.630137" rx="128" ry="66.630137"></ellipse>
            <path d="M35.9452055,106.082192 L49.9726027,35.0684932 L82.4109589,35.0684932 C96.4383562,35.9452055 103.452055,42.9589041 103.452055,55.2328767 C103.452055,76.2739726 86.7945205,88.5479452 71.890411,87.6712329 L56.109589,87.6712329 L52.6027397,106.082192 L35.9452055,106.082192 L35.9452055,106.082192 Z M59.6164384,74.5205479 L64,48.2191781 L75.3972603,48.2191781 C81.5342466,48.2191781 85.9178082,50.8493151 85.9178082,56.109589 C85.0410959,71.0136986 78.0273973,73.6438356 70.1369863,74.5205479 L59.6164384,74.5205479 L59.6164384,74.5205479 Z" fill="#232531"></path>
            <path d="M100.191781,87.6712329 L114.219178,16.6575342 L130.876712,16.6575342 L127.369863,35.0684932 L143.150685,35.0684932 C157.178082,35.9452055 162.438356,42.9589041 160.684932,51.7260274 L154.547945,87.6712329 L137.013699,87.6712329 L143.150685,55.2328767 C144.027397,50.8493151 144.027397,48.2191781 137.890411,48.2191781 L124.739726,48.2191781 L116.849315,87.6712329 L100.191781,87.6712329 L100.191781,87.6712329 Z" fill="#232531"></path>
            <path d="M153.424658,106.082192 L167.452055,35.0684932 L199.890411,35.0684932 C213.917808,35.9452055 220.931507,42.9589041 220.931507,55.2328767 C220.931507,76.2739726 204.273973,88.5479452 189.369863,87.6712329 L173.589041,87.6712329 L170.082192,106.082192 L153.424658,106.082192 L153.424658,106.082192 Z M177.09589,74.5205479 L181.479452,48.2191781 L192.876712,48.2191781 C199.013699,48.2191781 203.39726,50.8493151 203.39726,56.109589 C202.520548,71.0136986 195.506849,73.6438356 187.616438,74.5205479 L177.09589,74.5205479 L177.09589,74.5205479 Z" fill="#232531"></path>
        </g>
    </symbol>
    <symbol id="alert" viewBox="0 0 1200 1200">
        <path fill="F00" d="m1171 969.66-484.31-839.34c-18-31.312-50.672-50.016-86.672-50.016s-68.672 18.656-86.672 50.016l-484.31 839.34c-18.328 31.312-18.328 68.672 0 99.984 18 31.312 50.344 50.016 86.344 50.016h969.32c36 0 68.344-18.656 86.344-50.016 18.328-31.312 18.328-68.672 0-99.984zm-570.98-36.328c-27.656 0-50.016-22.312-50.016-50.016 0-27.656 22.312-50.016 50.016-50.016 27.656 0 50.016 22.312 50.016 50.016 0 27.656-22.312 50.016-50.016 50.016zm-33.328-500.02c0-18.328 15-33.328 33.328-33.328s33.328 15 33.328 33.328v300c0 18.328-15 33.328-33.328 33.328s-33.328-15-33.328-33.328z" />
    </symbol>
    <symbol id="icon-books" viewBox="0 0 36 32">
        <path d="M7 4h-6c-0.55 0-1 0.45-1 1v22c0 0.55 0.45 1 1 1h6c0.55 0 1-0.45 1-1v-22c0-0.55-0.45-1-1-1zM6 10h-4v-2h4v2z"></path>
        <path d="M17 4h-6c-0.55 0-1 0.45-1 1v22c0 0.55 0.45 1 1 1h6c0.55 0 1-0.45 1-1v-22c0-0.55-0.45-1-1-1zM16 10h-4v-2h4v2z"></path>
        <path d="M23.909 5.546l-5.358 2.7c-0.491 0.247-0.691 0.852-0.443 1.343l8.999 17.861c0.247 0.491 0.852 0.691 1.343 0.443l5.358-2.7c0.491-0.247 0.691-0.852 0.443-1.343l-8.999-17.861c-0.247-0.491-0.852-0.691-1.343-0.443z"></path>
    </symbol>
</svg>