<?xml version="1.0" encoding="UTF-8"?>
<svg width="128pt" height="128pt" version="1.1" viewBox="0 0 128 128" xmlns="http://www.w3.org/2000/svg">
 <path d="m60.84 28.465-25.055 27.207c-1.3125 1.3711-1.7188 3.3828-1.0469 5.1562 0.67578 1.7773 2.3086 3.0117 4.2031 3.1719h8.7656c2.0391 0 3.6953 1.6523 3.6953 3.6953v25.863c0 4.082 3.3086 7.3867 7.3906 7.3867h7.3906-0.003906c4.082 0 7.3906-3.3047 7.3906-7.3867v-25.863c0-2.0391 1.6523-3.6953 3.6953-3.6953h11.824c1.8945-0.16016 3.5312-1.3906 4.2031-3.1719 0.67578-1.7773 0.26953-3.7852-1.0469-5.1562l-25.055-27.207h-0.003906c-0.80859-0.90234-1.9609-1.418-3.1758-1.418-1.2109 0-2.3633 0.51172-3.1758 1.418z"/>
</svg>
