<?xml version="1.0" encoding="UTF-8"?>
<svg width="128pt" height="128pt" version="1.1" viewBox="0 0 128 128" xmlns="http://www.w3.org/2000/svg">
 <path d="m64 5.3359c-15.559 0-30.48 6.1797-41.484 17.18-11 11.004-17.18 25.926-17.18 41.484s6.1797 30.48 17.18 41.484c11.004 11 25.926 17.18 41.484 17.18s30.48-6.1797 41.484-17.18c11-11.004 17.18-25.926 17.18-41.484s-6.1797-30.48-17.18-41.484c-11.004-11-25.926-17.18-41.484-17.18zm5.8633 88h-11.73v-35.199h11.734zm-5.8633-46.934c-2.375 0-4.5117-1.4297-5.4219-3.6211-0.91016-2.1953-0.40625-4.7148 1.2695-6.3945 1.6797-1.6797 4.2031-2.1797 6.3945-1.2695 2.1914 0.90625 3.6211 3.0469 3.6211 5.4219 0.015625 1.5586-0.59375 3.0586-1.6992 4.1641-1.1055 1.1016-2.6055 1.7148-4.1641 1.6992z"/>
</svg>
