<?xml version="1.0" encoding="UTF-8"?>
<svg width="128pt" height="128pt" version="1.1" viewBox="0 0 128 128" xmlns="http://www.w3.org/2000/svg">
 <path d="m75.734 64c0 6.4805-5.2539 11.734-11.734 11.734s-11.734-5.2539-11.734-11.734 5.2539-11.734 11.734-11.734 11.734 5.2539 11.734 11.734"/>
 <path d="m64 5.3359c-15.559 0-30.48 6.1797-41.484 17.18-11 11.004-17.18 25.926-17.18 41.484s6.1797 30.48 17.18 41.484c11.004 11 25.926 17.18 41.484 17.18s30.48-6.1797 41.484-17.18c11-11.004 17.18-25.926 17.18-41.484s-6.1797-30.48-17.18-41.484c-11.004-11-25.926-17.18-41.484-17.18zm35.199 64.535-12.586-0.003906c-0.55469 2.1016-1.3984 4.1094-2.5117 5.9766l8.9062 8.9062-8.3203 8.3203-8.9062-8.9062c-1.8594 1.1094-3.875 1.9531-5.9688 2.5039v12.535h-11.68v-12.586c-2.1016-0.55469-4.1094-1.3984-5.9766-2.5117l-8.9062 8.9102-8.2695-8.2695 8.9062-8.9062h0.003906c-1.1094-1.8633-1.9531-3.875-2.5117-5.9766h-12.586v-11.73h12.586c0.55469-2.1016 1.3984-4.1094 2.5117-5.9766l-8.9102-8.9062 8.2695-8.2695 8.9062 8.8555c1.8633-1.1094 3.875-1.9531 5.9766-2.5039v-12.535h11.734l-0.003907 12.586c2.1016 0.55469 4.1094 1.3984 5.9766 2.5117l8.9062-8.9062 8.3203 8.3203-8.9062 8.8516c1.1094 1.8633 1.9531 3.875 2.5039 5.9766h12.535z"/>
</svg>
