<?xml version="1.0" encoding="UTF-8"?>
<svg width="128pt" height="128pt" version="1.1" viewBox="0 0 128 128" xmlns="http://www.w3.org/2000/svg">
 <path d="m64 5.3359c-15.559 0-30.48 6.1797-41.484 17.18-11 11.004-17.18 25.926-17.18 41.484s6.1797 30.48 17.18 41.484c11.004 11 25.926 17.18 41.484 17.18s30.48-6.1797 41.484-17.18c11-11.004 17.18-25.926 17.18-41.484s-6.1797-30.48-17.18-41.484c-11.004-11-25.926-17.18-41.484-17.18zm-10.344 83.57-8.3203-8.3203-12.43-12.426 8.3203-8.3203 12.426 12.426 33.176-33.176 8.3203 8.3203z"/>
</svg>
