<?xml version="1.0" encoding="UTF-8"?>
<svg width="128pt" height="128pt" version="1.1" viewBox="0 0 128 128" xmlns="http://www.w3.org/2000/svg">
 <path d="m121.23 96.641-45.281-75.305c-2.7344-3.8867-7.1914-6.1992-11.945-6.1992s-9.2109 2.3164-11.945 6.1992l-45.281 75.305c-4.4805 7.4141 1.9766 16 11.945 16h90.664c9.8711 0.26562 16.32-8.5352 11.84-16zm-57.227-0.64062c-1.9844 0-3.7734-1.1953-4.5352-3.0312-0.76172-1.8281-0.33984-3.9453 1.0664-5.3438 1.4062-1.4062 3.5156-1.8242 5.3516-1.0664 1.8281 0.76172 3.0234 2.5508 3.0234 4.5352 0.015625 1.3047-0.49609 2.5586-1.4219 3.4844-0.92578 0.92188-2.1797 1.4336-3.4844 1.4219zm4.9062-19.574h-9.8086v-39.09h9.7617z"/>
</svg>
